<?xml version="1.0" encoding="UTF-8"?>
<svg version="1.1" xmlns="http://www.w3.org/2000/svg" width="361" height="340">
    <path d="M0 0 C5.26404229 0.00258206 10.52808308 0.00017062 15.79212546 -0.00138617 C24.60729901 -0.00318909 33.42246408 -0.0008493 42.23763633 0.00395441 C52.37512528 0.00941548 62.51259417 0.00761343 72.65008265 0.00212801 C81.43311945 -0.00243081 90.21615028 -0.00304084 98.99918789 -0.00043333 C104.21118963 0.00111146 109.42318198 0.00137286 114.6351831 -0.00196981 C119.52667902 -0.00488996 124.41814935 -0.00279798 129.30964255 0.00292444 C131.08678942 0.00422912 132.8639385 0.00389782 134.64108443 0.00166178 C143.64642592 -0.00861194 152.63075826 0.11174093 161.62696433 0.54085016 C162.77552105 0.59109852 162.77552105 0.59109852 163.94728094 0.642362 C181.42430215 1.58100488 196.16313478 8.74557702 208.40877891 21.1343255 C209.58247031 22.27514582 209.58247031 22.27514582 210.77987266 23.439013 C226.53164875 39.64235772 229.01652457 59.36929537 228.94222617 80.84868097 C228.94929621 83.01195597 228.95804576 85.17522602 228.96833396 87.3384881 C228.99071656 93.17747213 228.98791416 99.01618366 228.97901249 104.85519409 C228.97387938 109.74553288 228.98121401 114.6358215 228.98848456 119.52615511 C229.00544849 131.07088338 229.00195335 142.61547935 228.98519492 154.16020441 C228.96827829 166.0357005 228.98411014 177.91082886 229.0164178 189.7862848 C229.04318278 200.01521012 229.05037102 210.24402145 229.04190272 220.47297823 C229.03699354 226.56775634 229.03907995 232.66231338 229.05969024 238.75706339 C229.07815593 244.4914231 229.07195609 250.22525734 229.04749084 255.95958948 C229.04251732 258.0524277 229.04588162 260.14530673 229.05863929 262.23811197 C229.18127738 284.10167025 224.07942501 301.35963782 209.40877891 318.1343255 C208.86608359 318.76080988 208.32338828 319.38729425 207.76424766 320.032763 C196.51905752 332.1261305 180.330471 339.07089132 163.95276022 340.32193303 C161.40543782 340.39492517 158.86481141 340.4106986 156.31646323 340.40175104 C154.86887757 340.40854771 154.86887757 340.40854771 153.39204776 340.41548169 C150.18517263 340.4280575 146.97846881 340.42650973 143.77157187 340.42485285 C141.46110927 340.43084242 139.15064865 340.43764895 136.84019065 340.44520807 C130.58163289 340.46283321 124.32312987 340.46756203 118.06454968 340.46883965 C114.14832312 340.47026397 110.23211034 340.47453893 106.31588721 340.47983408 C93.34101595 340.49737097 80.36618335 340.50667576 67.39130078 340.50517313 C66.69324044 340.50509322 65.99518009 340.50501331 65.27596641 340.50493097 C64.57704269 340.50484921 63.87811897 340.50476745 63.15801574 340.50468321 C51.84328214 340.50387114 40.52868192 340.5229932 29.21398686 340.55120771 C17.56541364 340.58002294 5.91691139 340.59337802 -5.73169816 340.59202015 C-12.25911261 340.5915119 -18.78637608 340.59711924 -25.31375909 340.61837626 C-31.45836367 340.63784122 -37.60267452 340.63782668 -43.7472899 340.62334299 C-45.99171212 340.62126392 -48.23615314 340.62590145 -50.48054338 340.63806391 C-73.76790488 340.75600061 -94.15225077 337.00814401 -111.59122109 320.1343255 C-124.25633164 306.44718863 -132.73387518 290.28923724 -132.74512124 271.37095881 C-132.74950349 270.47636509 -132.75388575 269.58177137 -132.7584008 268.66006875 C-132.77177866 265.6557173 -132.77796554 262.65139518 -132.78409219 259.64702082 C-132.79199431 257.49507754 -132.80026333 255.34313558 -132.80887246 253.19119501 C-132.83509227 246.11495971 -132.85040575 239.03871851 -132.86465859 231.9624505 C-132.87001936 229.52350343 -132.87539688 227.08455638 -132.88079095 224.64560938 C-132.90242466 214.49385449 -132.92115795 204.34210119 -132.93241334 194.19032907 C-132.94862801 179.66232716 -132.98174008 165.13459374 -133.03881419 150.60669303 C-133.07760458 140.38224311 -133.09705713 130.15786471 -133.1023339 119.93334317 C-133.10597649 113.83278809 -133.11788062 107.73251939 -133.15043664 101.63204432 C-133.1806752 95.88309599 -133.1867729 90.13460494 -133.17505288 84.38559389 C-133.17483343 82.2862939 -133.1830311 80.18697173 -133.20070672 78.08774614 C-133.38470478 54.95820763 -127.48552278 36.70602364 -111.46622109 19.5718255 C-97.0798758 5.64720413 -79.49499674 1.15285101 -60.07095742 0.58012629 C-59.03496075 0.54868285 -59.03496075 0.54868285 -57.97803485 0.51660419 C-38.65597934 -0.05665499 -19.32871929 -0.01250055 0 0 Z " fill="#655BEB" transform="translate(132.59122109413147,-0.13432550430297852)"/>
    <path d="M0 0 C1.31226563 -0.02578125 2.62453125 -0.0515625 3.9765625 -0.078125 C7.375 0.25 7.375 0.25 9.3359375 1.765625 C9.67882812 2.25546875 10.02171875 2.7453125 10.375 3.25 C9.98570312 3.68828125 9.59640625 4.1265625 9.1953125 4.578125 C7.24284043 6.79152651 5.30775907 9.0193605 3.375 11.25 C2.23417969 12.55710937 2.23417969 12.55710937 1.0703125 13.890625 C-5.80796538 21.93359531 -11.75488272 30.45598399 -17.625 39.25 C-14.58095638 37.90113408 -11.53995391 36.54555689 -8.5 35.1875 C-7.59378906 34.78354004 -6.68757813 34.37958008 -5.75390625 33.96337891 C0.84318816 30.99958525 7.26473195 27.80723632 13.625 24.3671875 C16.375 23.25 16.375 23.25 18.6875 23.5078125 C20.375 24.25 20.375 24.25 21.375 25.25 C22.24926993 33.29328333 19.30258453 40.98183528 14.5625 47.4375 C13.51101193 48.71745955 12.44849839 49.9884435 11.375 51.25 C10.89675781 51.88292969 10.41851562 52.51585937 9.92578125 53.16796875 C0.89979745 64.558442 -13.05316275 71.49059659 -25.625 78.25 C-22.83698672 89.14230032 -18.886999 98.40472463 -10.625 106.25 C-9.71878906 105.64671875 -8.81257813 105.0434375 -7.87890625 104.421875 C-1.30701832 100.0938922 5.02733511 96.16372918 12.375 93.25 C12.32859375 92.15300781 12.2821875 91.05601562 12.234375 89.92578125 C12.1968421 88.4713815 12.16044357 87.01695217 12.125 85.5625 C12.09148437 84.84126953 12.05796875 84.12003906 12.0234375 83.37695312 C11.9542421 79.58850482 12.15312599 77.63688328 14.08203125 74.2734375 C17.42156675 71.32645388 19.65743592 71.46715657 23.95703125 71.71484375 C26.375 72.25 26.375 72.25 29.5 74.625 C31.375 78.25 31.375 78.25 31.375 88.25 C42.925 87.92 54.475 87.59 66.375 87.25 C66.375 84.61 66.375 81.97 66.375 79.25 C67.93935288 75.2273783 68.76223663 73.65850891 72.375 71.25 C80.89767487 70.70887779 80.89767487 70.70887779 84.375 73.25 C87.83977956 78.44716935 86.69109921 84.91876833 85.875 90.9375 C85.71 91.700625 85.545 92.46375 85.375 93.25 C85.90867188 93.39695312 86.44234375 93.54390625 86.9921875 93.6953125 C94.22446989 95.87250478 100.57798439 99.29448514 106.54296875 103.9375 C108.27036053 105.44412844 108.27036053 105.44412844 110.375 105.25 C111.94777794 103.19749443 113.36153726 101.17344238 114.75 99 C115.153396 98.3719043 115.55679199 97.74380859 115.97241211 97.09667969 C119.59127456 91.26127316 123.375 84.27493262 123.375 77.25 C122.50359375 76.84910156 121.6321875 76.44820313 120.734375 76.03515625 C112.16032811 71.94299751 104.77820696 67.27386127 97.375 61.25 C96.62347656 60.66347656 95.87195313 60.07695313 95.09765625 59.47265625 C86.77696221 52.68514192 79.27249314 42.64797153 78.1015625 31.69140625 C78.01017442 25.97965116 78.01017442 25.97965116 79.375 23.25 C84.00995593 23.865023 87.78324676 25.80301467 91.875 27.9375 C93.29082066 28.66181233 94.70750212 29.3844443 96.125 30.10546875 C96.83269531 30.46560059 97.54039062 30.82573242 98.26953125 31.19677734 C103.24044631 33.68338768 108.31088917 35.96074442 113.375 38.25 C113.705 37.92 114.035 37.59 114.375 37.25 C103.13154088 20.47169473 103.13154088 20.47169473 89.56640625 5.5859375 C88.375 4.25 88.375 4.25 88.375 1.25 C94.88636195 -2.00568097 105.54067547 -0.02697755 112.25 1.9375 C129.85316153 8.15542551 142.65699748 21.06428814 150.6875 37.8125 C158.18418287 54.96523635 160.5657713 73.78183058 153.9140625 91.6015625 C148.29684585 104.91750248 139.59197907 115.22764727 128.375 124.25 C128.7359375 124.92546875 129.096875 125.6009375 129.46875 126.296875 C129.9328125 127.18890625 130.396875 128.0809375 130.875 129 C131.3390625 129.88171875 131.803125 130.7634375 132.28125 131.671875 C133.375 134.25 133.375 134.25 133.375 138.25 C149.10329057 132.86251778 159.73356375 126.60903075 170.89453125 114.02807617 C171.54679688 113.29951416 172.1990625 112.57095215 172.87109375 111.8203125 C173.74012329 110.82668701 173.74012329 110.82668701 174.62670898 109.81298828 C176.5501606 108.09340481 177.8539432 107.6418956 180.375 107.25 C182.89075318 111.02362977 182.95422849 114.88698022 182.375 119.25 C179.43251745 131.33590149 169.53854584 140.66349432 159.375 147.25 C152.49167593 150.98797534 145.35007292 154.27112009 137.9140625 156.73046875 C136.74617187 157.23191406 135.57828125 157.73335937 134.375 158.25 C133.60283399 160.28300353 133.60283399 160.28300353 133.375 162.25 C134.07625 162.50007812 134.7775 162.75015625 135.5 163.0078125 C138.73773489 164.40672513 141.4538192 166.15022217 144.375 168.125 C145.8909375 169.14207031 145.8909375 169.14207031 147.4375 170.1796875 C157.42282228 177.21721517 164.6017854 185.97879577 169.375 197.25 C169.808125 198.219375 170.24125 199.18875 170.6875 200.1875 C172.05798166 206.29237286 172.2457376 212.10943674 169.875 217.9375 C169.1325 219.0821875 169.1325 219.0821875 168.375 220.25 C164.31829941 218.89776647 163.51314458 216.32680801 161.625 212.75 C153.15307419 197.39426955 141.57627993 186.05730912 125.1875 179.35546875 C123.27167637 179.07543499 123.27167637 179.07543499 121.48828125 180.359375 C120.89402344 180.90078125 120.29976562 181.4421875 119.6875 182 C118.78451172 182.79664063 118.78451172 182.79664063 117.86328125 183.609375 C116.13763245 185.29012418 116.13763245 185.29012418 115.375 188.25 C116.0040625 188.88164062 116.633125 189.51328125 117.28125 190.1640625 C129.46080787 202.8939016 136.65295614 216.11913821 136.7734375 234.05078125 C136.34246047 237.51127327 135.37463268 239.43041212 133.375 242.25 C131.02905273 242.03930664 131.02905273 242.03930664 128.375 241.25 C126.98461914 239.24389648 126.98461914 239.24389648 125.91015625 236.62109375 C125.50216797 235.66783203 125.09417969 234.71457031 124.67382812 233.73242188 C124.0618457 232.22518555 124.0618457 232.22518555 123.4375 230.6875 C119.20615745 220.44994553 114.73145703 212.46193238 105.875 205.625 C105.06095703 204.93857422 105.06095703 204.93857422 104.23046875 204.23828125 C102.4203489 202.7495676 102.4203489 202.7495676 99.375 201.25 C96.27084551 201.70452547 96.27084551 201.70452547 93.375 203.25 C92.39402344 203.64058594 91.41304687 204.03117188 90.40234375 204.43359375 C89.38269531 204.84738281 88.36304688 205.26117188 87.3125 205.6875 C59.59779843 216.41270985 31.52732151 213.52153153 4.375 203.25 C3.33601563 202.77949219 2.29703125 202.30898438 1.2265625 201.82421875 C-1.709663 200.91570485 -1.709663 200.91570485 -4.37109375 202.7421875 C-16.60175121 213.57049091 -23.57570739 223.57297243 -28.86328125 239.16796875 C-29.625 241.25 -29.625 241.25 -30.625 242.25 C-33 242.5625 -33 242.5625 -35.625 242.25 C-37.86671397 240.00294861 -38.5756182 238.59857741 -39.0234375 235.4375 C-38.89857385 218.45604362 -33.64622909 206.06047982 -22.23242188 193.66430664 C-19.0056005 190.09442518 -19.0056005 190.09442518 -18.625 185.25 C-19.90984866 183.39858751 -19.90984866 183.39858751 -21.75 181.875 C-22.33007812 181.33101562 -22.91015625 180.78703125 -23.5078125 180.2265625 C-25.68025558 178.97043264 -25.68025558 178.97043264 -28.4453125 179.83203125 C-46.57028177 187.91478781 -58.02888266 201.06067568 -67.22265625 218.234375 C-67.91681641 219.23210937 -67.91681641 219.23210937 -68.625 220.25 C-69.615 220.25 -70.605 220.25 -71.625 220.25 C-74.49830008 213.94023302 -74.67563335 207.30329571 -72.9375 200.59765625 C-71.97243443 198.0522958 -70.8701945 195.6703468 -69.625 193.25 C-69.2125 192.42757812 -68.8 191.60515625 -68.375 190.7578125 C-61.59318025 178.38869807 -50.59418209 170.22028839 -38.625 163.25 C-37.30196045 162.87790427 -35.96961733 162.53441715 -34.625 162.25 C-35.60213785 159.74123864 -36.21346543 158.49023801 -38.57348633 157.11254883 C-39.36005615 156.81372803 -40.14662598 156.51490723 -40.95703125 156.20703125 C-41.83206299 155.86027344 -42.70709473 155.51351562 -43.60864258 155.15625 C-44.54216553 154.7953125 -45.47568848 154.434375 -46.4375 154.0625 C-62.06979809 147.67536607 -75.69709945 139.32272927 -82.625 123.25 C-83.54850727 120.47947819 -83.78829585 118.68311242 -83.8125 115.8125 C-83.82667969 115.05066406 -83.84085938 114.28882813 -83.85546875 113.50390625 C-83.60112666 111.01652685 -82.86517196 109.40191894 -81.625 107.25 C-78.24320268 108.70697053 -76.1168916 110.55823544 -73.578125 113.20703125 C-72.815 113.99013672 -72.051875 114.77324219 -71.265625 115.58007812 C-69.685247 117.22114058 -68.1070805 118.86433594 -66.53125 120.50976562 C-59.24975265 127.9684135 -52.49776137 132.32005931 -42.625 135.5625 C-41.46291016 135.95791992 -41.46291016 135.95791992 -40.27734375 136.36132812 C-38.39628536 136.99995906 -36.51106571 137.62631236 -34.625 138.25 C-34.51285156 137.53457031 -34.40070313 136.81914062 -34.28515625 136.08203125 C-33.58043995 133.05884002 -32.49212202 130.68677312 -31.0625 127.9375 C-30.37994141 126.61298828 -30.37994141 126.61298828 -29.68359375 125.26171875 C-29.33425781 124.59785156 -28.98492187 123.93398437 -28.625 123.25 C-29.34171875 123.01796875 -30.0584375 122.7859375 -30.796875 122.546875 C-42.55331363 117.15580093 -51.75465162 101.82609801 -56.125 90.1875 C-58.48072401 83.10942183 -58.83700498 76.53402983 -58.875 69.125 C-58.895625 68.14273438 -58.91625 67.16046875 -58.9375 66.1484375 C-59.03781942 47.08774741 -49.84965233 29.23132284 -37 15.53515625 C-26.70900358 5.63345739 -14.24964339 0.16863483 0 0 Z " fill="#FCFCFE" transform="translate(131.625,54.75)"/>
    <path d="M0 0 C1.98 0 3.96 0 6 0 C2.83910309 10.72052447 -0.57998493 21.36005749 -3.96240234 32.01220703 C-4.77023748 34.55729139 -5.57660353 37.10283764 -6.3828125 39.6484375 C-6.6307254 40.42762543 -6.87863831 41.20681335 -7.13406372 42.00961304 C-8.18262065 45.32241519 -9.18227635 48.62304032 -10 52 C-16.9404986 52.36258591 -21.81736493 51.38375178 -28.19140625 48.71875 C-29.43747902 48.21933899 -29.43747902 48.21933899 -30.70872498 47.70983887 C-33.3327621 46.6543188 -35.94747974 45.57763811 -38.5625 44.5 C-40.35163852 43.7759213 -42.14134769 43.05325093 -43.93164062 42.33203125 C-48.29452496 40.57089628 -52.64918981 38.79074432 -57 37 C-57 34.69 -57 32.38 -57 30 C-51.96666116 28.01920153 -46.9312283 26.04385864 -41.89379883 24.07348633 C-40.18130152 23.40277306 -38.46938042 22.73058664 -36.75805664 22.05688477 C-34.29464214 21.08740273 -31.82918725 20.1232805 -29.36328125 19.16015625 C-28.60163162 18.85908463 -27.83998199 18.558013 -27.05525208 18.24781799 C-23.38786394 16.82124833 -19.91256491 15.59855142 -16 15 C-16 16.98 -16 18.96 -16 21 C-37.60739583 29.72551414 -37.60739583 29.72551414 -47 33 C-44.40634636 35.59365364 -41.93850454 36.2906934 -38.49609375 37.56640625 C-37.53836815 37.92483864 -37.53836815 37.92483864 -36.56129456 38.29051208 C-34.52191379 39.05301437 -32.47992948 39.80820594 -30.4375 40.5625 C-28.39187283 41.32130365 -26.34686029 42.08166585 -24.30299377 42.84519958 C-22.45127352 43.53647397 -20.59762581 44.22257864 -18.74389648 44.90844727 C-16 46 -16 46 -15 47 C-10.05 31.49 -5.1 15.98 0 0 Z " fill="#6E63E1" transform="translate(186,172)"/>
    <path d="M0 0 C8.38012361 2.28714898 16.38024928 5.40251713 24.4375 8.625 C26.93565762 9.61855297 29.43465177 10.60998232 31.93359375 11.6015625 C33.02728271 12.03807129 34.12097168 12.47458008 35.24780273 12.92431641 C37.14635789 13.66635792 39.06618936 14.35539645 41 15 C41 17.31 41 19.62 41 22 C35.64573349 24.14277039 30.28885967 26.27883415 24.92944336 28.40869141 C23.1061168 29.13438544 21.28352003 29.86191585 19.46166992 30.59130859 C16.84482887 31.63861498 14.22544561 32.67931744 11.60546875 33.71875 C10.78974899 34.04685669 9.97402924 34.37496338 9.1335907 34.7130127 C8.37302872 35.01332397 7.61246674 35.31363525 6.82885742 35.62304688 C5.8262513 36.02275696 5.8262513 36.02275696 4.8033905 36.43054199 C3 37 3 37 0 37 C0 35.02 0 33.04 0 31 C10.23 27.04 20.46 23.08 31 19 C24.28789936 15.62488027 24.28789936 15.62488027 17.44140625 12.89453125 C15.99797852 12.37922852 15.99797852 12.37922852 14.52539062 11.85351562 C13.54763672 11.50998047 12.56988281 11.16644531 11.5625 10.8125 C9.58375952 10.11315042 7.60584506 9.41145772 5.62890625 8.70703125 C4.76338135 8.4025708 3.89785645 8.09811035 3.00610352 7.78442383 C1 7 1 7 0 6 C-0.04080783 4.00041636 -0.04254356 1.99954746 0 0 Z " fill="#6D63E0" transform="translate(191,187)"/>
    <path d="M0 0 C0.66 0 1.32 0 2 0 C3.15625 1.46875 3.15625 1.46875 4.5 3.5 C12.23846113 14.02208024 23.8231082 19.94103607 36 24 C36 24.66 36 25.32 36 26 C21.8167863 23.87517398 8.3989875 13.12298345 0 2 C0 1.34 0 0.68 0 0 Z " fill="#6A62CD" transform="translate(15,311)"/>
    <path d="M0 0 C0 0.66 0 1.32 0 2 C-0.71027344 2.24234375 -1.42054688 2.4846875 -2.15234375 2.734375 C-3.07144531 3.06953125 -3.99054688 3.4046875 -4.9375 3.75 C-5.85402344 4.07484375 -6.77054688 4.3996875 -7.71484375 4.734375 C-8.46894531 5.15203125 -9.22304687 5.5696875 -10 6 C-10.33 7.32 -10.66 8.64 -11 10 C-7.04 10.99 -7.04 10.99 -3 12 C-3.33 12.66 -3.66 13.32 -4 14 C-6.97 13.01 -9.94 12.02 -13 11 C-13 8.69 -13 6.38 -13 4 C-11.2097939 3.32942113 -9.41778511 2.6636531 -7.625 2 C-6.62726563 1.62875 -5.62953125 1.2575 -4.6015625 0.875 C-2 0 -2 0 0 0 Z " fill="#736AD4" transform="translate(142,198)"/>
    <path d="M0 0 C0.66 0.33 1.32 0.66 2 1 C-4.75 5 -4.75 5 -7 5 C-7 5.66 -7 6.32 -7 7 C-7.66 7 -8.32 7 -9 7 C-8.814375 7.9075 -8.62875 8.815 -8.4375 9.75 C-8 13 -8 13 -9 17 C-9.99 13.37 -10.98 9.74 -12 6 C-10.04669132 4.96958487 -8.08718472 3.9509107 -6.125 2.9375 C-5.03445312 2.36902344 -3.94390625 1.80054687 -2.8203125 1.21484375 C-1.42425781 0.61349609 -1.42425781 0.61349609 0 0 Z " fill="#534AC9" transform="translate(117,126)"/>
    <path d="M0 0 C0.33 0 0.66 0 1 0 C0.67 3.3 0.34 6.6 0 10 C0.66 10 1.32 10 2 10 C2 10.66 2 11.32 2 12 C-4.0546875 12.1953125 -4.0546875 12.1953125 -6 12 C-6.66 11.34 -7.32 10.68 -8 10 C-6.68 10 -5.36 10 -4 10 C-4.33 8.68 -4.66 7.36 -5 6 C-4.01 6.33 -3.02 6.66 -2 7 C-1.34 4.69 -0.68 2.38 0 0 Z " fill="#746BD0" transform="translate(173,212)"/>
    <path d="M0 0 C0.99 0 1.98 0 3 0 C3.81832722 1.89332534 4.62942268 3.78977733 5.4375 5.6875 C5.88996094 6.74324219 6.34242188 7.79898438 6.80859375 8.88671875 C7.85447455 11.61972529 8.53520748 14.12042337 9 17 C6.59124922 13.94746898 4.67456202 10.78648153 2.8125 7.375 C2.28269531 6.41335937 1.75289063 5.45171875 1.20703125 4.4609375 C0 2 0 2 0 0 Z " fill="#5148C8" transform="translate(276,81)"/>
    <path d="M0 0 C1.98 0.495 1.98 0.495 4 1 C3.67 2.65 3.34 4.3 3 6 C3.99 6.33 4.98 6.66 6 7 C5.01 7.495 5.01 7.495 4 8 C1.375 6.5625 1.375 6.5625 -1 5 C-0.67 3.35 -0.34 1.7 0 0 Z " fill="#5950D1" transform="translate(266,212)"/>
    <path d="M0 0 C0 3 0 3 -1 5 C-0.01 5.33 0.98 5.66 2 6 C0.03533587 7.06775224 -1.96855359 8.06553465 -4 9 C-4.66 8.67 -5.32 8.34 -6 8 C-4.02 5.36 -2.04 2.72 0 0 Z " fill="#5149BD" transform="translate(119,86)"/>
    <path d="M0 0 C0.99 0.33 1.98 0.66 3 1 C1.02 3.31 -0.96 5.62 -3 8 C-3.33 6.68 -3.66 5.36 -4 4 C-2.0625 1.75 -2.0625 1.75 0 0 Z " fill="#5D55D9" transform="translate(135,65)"/>
    <path d="M0 0 C2.475 0.495 2.475 0.495 5 1 C5 1.66 5 2.32 5 3 C4.01 3 3.02 3 2 3 C2 3.99 2 4.98 2 6 C1.34 6 0.68 6 0 6 C0 4.02 0 2.04 0 0 Z " fill="#6D65CE" transform="translate(191,187)"/>
</svg>
